<svg fill="#000000" xmlns="http://www.w3.org/2000/svg"  viewBox="0 0 50 50" width="50px" height="50px"><path d="M 24.121094 4.007813 C 23.625 3.945313 23.152344 4.269531 23.03125 4.757813 C 22.96875 5 16.859375 29.023438 2.425781 39.183594 C 2.160156 39.371094 2 39.675781 2 40 L 2 43 C 2 43.394531 2.230469 43.75 2.589844 43.910156 C 2.722656 43.972656 2.859375 44 3 44 C 3.238281 44 3.476563 43.914063 3.664063 43.75 C 12.246094 36.132813 24.132813 33 24.25 32.96875 C 24.691406 32.855469 25 32.457031 25 32 L 25 5 C 25 4.496094 24.625 4.070313 24.121094 4.007813 Z M 36.160156 10.015625 C 35.675781 9.933594 35.207031 10.21875 35.050781 10.683594 C 35.03125 10.742188 33.234375 15.898438 27 22.484375 L 27 32 C 27 33.367188 26.074219 34.5625 24.753906 34.90625 C 24.671875 34.925781 18.789063 36.496094 12.460938 40.03125 C 23.621094 36.679688 35.8125 36.992188 35.96875 37 C 36.242188 37.011719 36.503906 36.90625 36.699219 36.71875 C 36.890625 36.53125 37 36.269531 37 36 L 37 11 C 37 10.511719 36.644531 10.09375 36.160156 10.015625 Z M 47.03125 17 C 46.722656 16.992188 46.421875 17.125 46.222656 17.371094 C 44.132813 19.964844 41.707031 22.414063 39 24.691406 L 39 36 C 39 36.808594 38.667969 37.59375 38.089844 38.152344 C 37.527344 38.699219 36.789063 39 36.015625 39 L 35.90625 39 C 35.855469 38.996094 35.53125 38.988281 34.972656 38.988281 C 31.710938 38.988281 14.917969 39.304688 4.550781 45.566406 C 4.429688 45.640625 4.332031 45.683594 4.242188 45.71875 C 7.183594 45.011719 16.367188 43 26 43 C 37.601563 43 46.597656 45.917969 46.6875 45.949219 C 46.992188 46.050781 47.324219 46 47.585938 45.8125 C 47.847656 45.621094 48 45.320313 48 45 L 48 18 C 48 17.574219 47.730469 17.199219 47.332031 17.058594 C 47.230469 17.019531 47.132813 17.003906 47.03125 17 Z"/></svg>