<svg fill="#000000" xmlns="http://www.w3.org/2000/svg"  viewBox="0 0 50 50" width="50px" height="50px"><path d="M 8.484375 14.601563 C 4.9375 14.601563 0.964844 16.539063 0.625 20.796875 L 0.617188 20.875 L 0.617188 20.953125 C 0.617188 22.507813 0.960938 23.742188 2 25 L 0.101563 25 L 0.148438 27.40625 C 0.65625 31.5 4.257813 34.601563 8.835938 34.652344 C 9.867188 34.652344 11.097656 34.425781 12.003906 34.171875 L 12 35.007813 L 20.019531 35.042969 L 20 29.453125 C 20 29.453125 21.96875 29.578125 22.753906 29.25 C 23.8125 32.605469 27.195313 34.609375 31.046875 34.652344 C 33.160156 34.652344 35.058594 34.136719 36.5 33.144531 C 37.878906 34.117188 39.398438 34.617188 41.175781 34.652344 L 41.234375 34.652344 C 43.382813 34.625 45.402344 34.0625 46.925781 33.058594 C 48.859375 31.78125 49.765625 29.828125 49.8125 27.5625 C 49.8125 26.011719 49.230469 23.605469 47.449219 22.988281 L 49.609375 23 L 49.589844 22.03125 C 49.519531 20.046875 48.605469 18.148438 47.371094 16.894531 C 45.90625 15.417969 43.734375 14.601563 41.25 14.601563 C 39.132813 14.601563 37.390625 15.152344 36.019531 16.167969 C 34.636719 15.164063 32.75 14.601563 30.695313 14.601563 C 28.605469 14.601563 26.808594 15.136719 25.449219 16.140625 C 24.125 15.242188 22.632813 14.96875 20.875 14.96875 L 12 15 L 12 15.386719 C 11.007813 15.035156 9.664063 14.601563 8.484375 14.601563 Z M 8.484375 16.601563 C 10.882813 16.601563 12.984375 17.566406 13.980469 19.042969 L 13.9375 17.019531 L 20.90625 17.015625 C 22.933594 17.015625 24.496094 17.597656 25.53125 18.925781 C 26.414063 17.5625 28.148438 16.601563 30.695313 16.601563 C 33.09375 16.601563 35.011719 17.523438 35.96875 19.035156 C 36.859375 17.597656 38.628906 16.601563 41.25 16.601563 C 44.789063 16.601563 47.53125 18.542969 47.496094 21.496094 L 43.011719 21.496094 C 42.9375 20.976563 42.503906 20.328125 41.25 20.292969 C 40.511719 20.328125 39.882813 20.660156 39.882813 21.175781 C 39.882813 21.542969 40.105469 21.839844 40.546875 21.988281 C 41.246094 22.210938 42.980469 22.652344 44.234375 23.058594 C 45.492188 23.390625 46.375 23.945313 47.003906 24.644531 C 47.667969 25.417969 48 26.414063 48 27.519531 C 47.925781 31.027344 44.53125 32.613281 41.210938 32.652344 C 39.144531 32.613281 37.632813 31.800781 36.414063 30.472656 C 35.125 32.023438 33.167969 32.652344 31.0625 32.652344 C 27.558594 32.613281 24.5 30.667969 24.484375 28.019531 L 29.019531 28.019531 C 29.039063 28.8125 30.25 29.011719 31.140625 29 C 31.949219 28.960938 32.796875 28.664063 32.796875 27.964844 C 32.796875 27.335938 32.355469 27.152344 31.65625 26.859375 C 31.285156 26.671875 30.214844 26.378906 28.847656 25.859375 C 27.964844 25.601563 26.226563 24.4375 26 24.15625 C 25.964844 24.304688 24.664063 27.355469 20.84375 27.484375 L 18.042969 27.5 L 17.984375 33 L 13.984375 33.015625 L 14 30.988281 C 12.78125 32.097656 10.738281 32.652344 8.855469 32.652344 C 5.351563 32.613281 2.363281 30.289063 2.140625 27.265625 L 6.679688 27.265625 C 6.640625 28.445313 7.785156 28.996094 8.929688 28.996094 C 9.742188 28.960938 10.589844 28.664063 10.589844 27.964844 C 10.589844 27.335938 10.144531 27.152344 9.445313 26.859375 C 9.078125 26.671875 8.003906 26.378906 6.640625 25.859375 C 5.792969 25.601563 5.019531 25.160156 4.390625 24.644531 C 3.320313 23.683594 2.617188 22.394531 2.617188 20.953125 C 2.804688 18.632813 4.832031 16.601563 8.484375 16.601563 Z M 8.449219 20.058594 C 7.710938 20.09375 7 20.484375 7 21 C 7 21.367188 7.304688 21.839844 7.785156 21.988281 C 8.484375 22.210938 10.21875 22.652344 11.472656 23.058594 C 12.433594 23.316406 13.410156 23.519531 14 24 L 14 21.546875 L 10.144531 21.546875 C 10.042969 20.707031 9.703125 20.09375 8.449219 20.058594 Z M 30.695313 20.292969 C 29.957031 20.328125 29.328125 20.660156 29.328125 21.175781 C 29.328125 21.542969 29.515625 21.839844 29.996094 21.988281 C 30.695313 22.210938 32.429688 22.652344 33.683594 23.058594 C 34.9375 23.390625 35.824219 23.945313 36.414063 24.644531 C 37.042969 25.34375 37.375 26.265625 37.410156 27.265625 L 37.402344 28 L 39.496094 27.996094 C 39.875 28.957031 40.546875 28.996094 41.691406 28.996094 C 42.730469 28.9375 43.351563 28.664063 43.351563 27.964844 C 43.351563 27.335938 42.90625 27.152344 42.207031 26.859375 C 41.839844 26.671875 40.804688 26.378906 39.402344 25.859375 C 38.554688 25.601563 37.78125 25.160156 37.152344 24.644531 C 36.191406 23.832031 35.566406 22.761719 35.417969 21.546875 L 32.355469 21.546875 C 32.28125 21.027344 31.949219 20.328125 30.695313 20.292969 Z M 20.246094 20.472656 L 18 20.5 L 18 24 L 20.246094 23.972656 C 21.210938 23.972656 21.996094 23.191406 21.996094 22.222656 C 21.996094 21.257813 21.210938 20.472656 20.246094 20.472656 Z"/></svg>